ffmpeg started on 2016-11-30 at 01:36:40
Report written to "Output/x264/results/ffmpeg/old_town_cross_2160p50faster1500k.log"
Command line:
Tools/ffmpeg/ffmpeg -benchmark -y -i Input/y4m/old_town_cross_2160p50.y4m -c:v libx264 -preset faster -b:v 1500k -an Output/x264/encoded/old_town_cross_2160p50faster1500k.mkv
ffmpeg version N-82227-gdb23fde Copyright (c) 2000-2016 the FFmpeg developers
  built with gcc 5.4.0 (Ubuntu 5.4.0-6ubuntu1~16.04.2) 20160609
  configuration: --prefix=/home/jaroslav/ffmpeg_build --pkg-config-flags=--static --extra-cflags=-I/home/jaroslav/ffmpeg_build/include --extra-ldflags=-L/home/jaroslav/ffmpeg_build/lib --bindir=/home/jaroslav/bin --enable-gpl --enable-libass --enable-libfdk-aac --enable-libfreetype --enable-libmp3lame --enable-libopus --enable-libtheora --enable-libvorbis --enable-libvpx --enable-libx264 --enable-libx265 --enable-nvenc --enable-libmfx --enable-libxvid --enable-libgsm --enable-libopencore-amrnb --enable-version3 --enable-nonfree
  libavutil      55. 35.100 / 55. 35.100
  libavcodec     57. 66.101 / 57. 66.101
  libavformat    57. 57.100 / 57. 57.100
  libavdevice    57.  2.100 / 57.  2.100
  libavfilter     6. 66.100 /  6. 66.100
  libswscale      4.  3.100 /  4.  3.100
  libswresample   2.  4.100 /  2.  4.100
  libpostproc    54.  2.100 / 54.  2.100
Input #0, yuv4mpegpipe, from 'Input/y4m/old_town_cross_2160p50.y4m':
  Duration: 00:00:10.00, start: 0.000000, bitrate: 4976642 kb/s
    Stream #0:0: Video: rawvideo (I420 / 0x30323449), yuv420p(progressive), 3840x2160, SAR 1:1 DAR 16:9, 50 fps, 50 tbr, 50 tbn, 50 tbc
[libx264 @ 0x2f8b120] using SAR=1/1
[libx264 @ 0x2f8b120] using cpu capabilities: MMX2 SSE2Fast SSSE3 SSE4.2 AVX FMA3 AVX2 LZCNT BMI2
[libx264 @ 0x2f8b120] profile High, level 5.2
[libx264 @ 0x2f8b120] 264 - core 148 - H.264/MPEG-4 AVC codec - Copyleft 2003-2016 - http://www.videolan.org/x264.html - options: cabac=1 ref=2 deblock=1:0:0 analyse=0x3:0x113 me=hex subme=4 psy=1 psy_rd=1.00:0.00 mixed_ref=0 me_range=16 chroma_me=1 trellis=1 8x8dct=1 cqm=0 deadzone=21,11 fast_pskip=1 chroma_qp_offset=0 threads=6 lookahead_threads=1 sliced_threads=0 nr=0 decimate=1 interlaced=0 bluray_compat=0 constrained_intra=0 bframes=3 b_pyramid=2 b_adapt=1 b_bias=0 direct=1 weightb=1 open_gop=0 weightp=1 keyint=250 keyint_min=25 scenecut=40 intra_refresh=0 rc_lookahead=20 rc=abr mbtree=1 bitrate=1500 ratetol=1.0 qcomp=0.60 qpmin=0 qpmax=69 qpstep=4 ip_ratio=1.40 aq=1:1.00
Output #0, matroska, to 'Output/x264/encoded/old_town_cross_2160p50faster1500k.mkv':
  Metadata:
    encoder         : Lavf57.57.100
    Stream #0:0: Video: h264 (libx264) (H264 / 0x34363248), yuv420p, 3840x2160 [SAR 1:1 DAR 16:9], q=-1--1, 1500 kb/s, 50 fps, 1k tbn, 50 tbc
    Metadata:
      encoder         : Lavc57.66.101 libx264
    Side data:
      cpb: bitrate max/min/avg: 0/0/1500000 buffer size: 0 vbv_delay: -1
Stream mapping:
  Stream #0:0 -> #0:0 (rawvideo (native) -> h264 (libx264))
Press [q] to stop, [?] for help
frame=   27 fps= 21 q=0.0 size=       0kB time=00:00:00.00 bitrate=N/A speed=   0x    frame=   36 fps= 20 q=55.0 size=       1kB time=00:00:00.06 bitrate=  96.1kbits/s speed=0.0341x    frame=   47 fps= 21 q=53.0 size=       1kB time=00:00:00.28 bitrate=  20.9kbits/s speed=0.123x    frame=   56 fps= 19 q=52.0 size=       1kB time=00:00:00.46 bitrate=  12.7kbits/s speed=0.155x    frame=   68 fps= 18 q=52.0 size=       1kB time=00:00:00.70 bitrate=   8.4kbits/s speed=0.19x    frame=   79 fps= 19 q=51.0 size=       1kB time=00:00:00.92 bitrate=   6.4kbits/s speed=0.22x    frame=   88 fps= 18 q=51.0 size=       1kB time=00:00:01.10 bitrate=   5.3kbits/s speed=0.226x    frame=  100 fps= 18 q=51.0 size=       1kB time=00:00:01.34 bitrate=   4.4kbits/s speed=0.24x    frame=  112 fps= 18 q=50.0 size=       1kB time=00:00:01.58 bitrate=   3.7kbits/s speed=0.251x    frame=  124 fps= 18 q=50.0 size=       1kB time=00:00:01.82 bitrate=   3.2kbits/s speed=0.26x    frame=  136 fps= 18 q=50.0 size=       1kB time=00:00:02.06 bitrate=   2.8kbits/s speed=0.267x    frame=  148 fps= 18 q=50.0 size=       1kB time=00:00:02.30 bitrate=   2.5kbits/s speed=0.273x    frame=  160 fps= 18 q=50.0 size=       1kB time=00:00:02.54 bitrate=   2.3kbits/s speed=0.278x    frame=  172 fps= 17 q=50.0 size=       1kB time=00:00:02.78 bitrate=   2.1kbits/s speed=0.283x    frame=  184 fps= 17 q=50.0 size=       1kB time=00:00:03.02 bitrate=   1.9kbits/s speed=0.287x    frame=  196 fps= 17 q=50.0 size=       1kB time=00:00:03.26 bitrate=   1.8kbits/s speed=0.29x    frame=  208 fps= 17 q=50.0 size=       1kB time=00:00:03.50 bitrate=   1.7kbits/s speed=0.293x    frame=  220 fps= 17 q=50.0 size=       1kB time=00:00:03.74 bitrate=   1.6kbits/s speed=0.295x    frame=  231 fps= 18 q=50.0 size=       1kB time=00:00:03.96 bitrate=   1.5kbits/s speed=0.301x    frame=  240 fps= 17 q=50.0 size=       1kB time=00:00:04.14 bitrate=   1.4kbits/s speed=0.298x    frame=  242 fps= 17 q=50.0 size=       1kB time=00:00:04.18 bitrate=   1.4kbits/s speed=0.289x    frame=  245 fps= 16 q=50.0 size=       1kB time=00:00:04.24 bitrate=   1.4kbits/s speed=0.278x    frame=  250 fps= 16 q=50.0 size=       1kB time=00:00:04.34 bitrate=   1.4kbits/s speed=0.274x    frame=  255 fps= 16 q=50.0 size=       1kB time=00:00:04.44 bitrate=   1.3kbits/s speed=0.271x    frame=  260 fps= 15 q=50.0 size=       1kB time=00:00:04.54 bitrate=   1.3kbits/s speed=0.268x    frame=  265 fps= 15 q=50.0 size=       1kB time=00:00:04.64 bitrate=   1.3kbits/s speed=0.264x    frame=  270 fps= 15 q=50.0 size=       1kB time=00:00:04.74 bitrate=   1.2kbits/s speed=0.262x    frame=  275 fps= 15 q=47.0 size=       1kB time=00:00:04.84 bitrate=   1.2kbits/s speed=0.259x    frame=  285 fps= 15 q=51.0 size=     895kB time=00:00:05.04 bitrate=1454.1kbits/s speed=0.261x    frame=  297 fps= 15 q=51.0 size=     895kB time=00:00:05.28 bitrate=1388.0kbits/s speed=0.263x    frame=  309 fps= 15 q=51.0 size=     895kB time=00:00:05.52 bitrate=1327.7kbits/s speed=0.266x    frame=  320 fps= 15 q=51.0 size=     895kB time=00:00:05.74 bitrate=1276.8kbits/s speed=0.27x    frame=  329 fps= 15 q=51.0 size=     895kB time=00:00:05.92 bitrate=1238.0kbits/s speed=0.27x    frame=  340 fps= 15 q=51.0 size=     895kB time=00:00:06.14 bitrate=1193.6kbits/s speed=0.273x    frame=  349 fps= 15 q=51.0 size=     895kB time=00:00:06.32 bitrate=1159.6kbits/s speed=0.273x    frame=  360 fps= 15 q=51.0 size=     895kB time=00:00:06.54 bitrate=1120.6kbits/s speed=0.277x    frame=  369 fps= 15 q=51.0 size=     895kB time=00:00:06.72 bitrate=1090.6kbits/s speed=0.276x    frame=  381 fps= 15 q=51.0 size=     895kB time=00:00:06.96 bitrate=1053.0kbits/s speed=0.278x    frame=  392 fps= 15 q=52.0 size=     895kB time=00:00:07.18 bitrate=1020.8kbits/s speed=0.281x    frame=  401 fps= 15 q=52.0 size=     895kB time=00:00:07.36 bitrate= 995.8kbits/s speed=0.281x    frame=  413 fps= 15 q=52.0 size=     895kB time=00:00:07.60 bitrate= 964.4kbits/s speed=0.282x    frame=  425 fps= 15 q=52.0 size=     895kB time=00:00:07.84 bitrate= 934.8kbits/s speed=0.283x    frame=  437 fps= 15 q=52.0 size=     895kB time=00:00:08.08 bitrate= 907.1kbits/s speed=0.285x    frame=  449 fps= 15 q=52.0 size=     895kB time=00:00:08.32 bitrate= 880.9kbits/s speed=0.286x    frame=  461 fps= 15 q=52.0 size=     895kB time=00:00:08.56 bitrate= 856.2kbits/s speed=0.287x    frame=  472 fps= 16 q=52.0 size=     895kB time=00:00:08.78 bitrate= 834.8kbits/s speed=0.29x    frame=  481 fps= 16 q=52.0 size=     895kB time=00:00:08.96 bitrate= 818.0kbits/s speed=0.289x    frame=  483 fps= 15 q=53.0 size=     895kB time=00:00:09.00 bitrate= 814.4kbits/s speed=0.285x    frame=  486 fps= 15 q=53.0 size=     895kB time=00:00:09.06 bitrate= 809.0kbits/s speed=0.28x    frame=  491 fps= 15 q=53.0 size=     895kB time=00:00:09.16 bitrate= 800.1kbits/s speed=0.278x    frame=  496 fps= 15 q=53.0 size=     895kB time=00:00:09.26 bitrate= 791.5kbits/s speed=0.276x    frame=  500 fps= 15 q=53.0 size=     895kB time=00:00:09.34 bitrate= 784.7kbits/s speed=0.274x    frame=  500 fps= 14 q=-1.0 Lsize=    2056kB time=00:00:09.94 bitrate=1694.1kbits/s speed=0.283x    
video:2052kB audio:0kB subtitle:0kB other streams:0kB global headers:0kB muxing overhead: 0.207681%
bench: utime=81.196s
bench: maxrss=1341028kB
[libx264 @ 0x2f8b120] frame I:3     Avg QP:46.87  size: 36740
[libx264 @ 0x2f8b120] frame P:183   Avg QP:49.25  size:  6636
[libx264 @ 0x2f8b120] frame B:314   Avg QP:50.39  size:  2470
[libx264 @ 0x2f8b120] consecutive B-frames: 16.0%  0.8%  0.0% 83.2%
[libx264 @ 0x2f8b120] mb I  I16..4: 63.0% 36.9%  0.0%
[libx264 @ 0x2f8b120] mb P  I16..4:  3.8%  2.5%  0.0%  P16..4:  4.6%  0.3%  0.0%  0.0%  0.0%    skip:88.7%
[libx264 @ 0x2f8b120] mb B  I16..4:  0.2%  0.0%  0.0%  B16..8:  3.9%  0.1%  0.0%  direct: 1.1%  skip:94.8%  L0:31.2% L1:68.8% BI: 0.0%
[libx264 @ 0x2f8b120] final ratefactor: 44.37
[libx264 @ 0x2f8b120] 8x8 transform intra:38.3% inter:97.5%
[libx264 @ 0x2f8b120] coded y,uvDC,uvAC intra: 7.4% 21.3% 0.9% inter: 0.2% 0.6% 0.0%
[libx264 @ 0x2f8b120] i16 v,h,dc,p: 54% 36%  7%  4%
[libx264 @ 0x2f8b120] i8 v,h,dc,ddl,ddr,vr,hd,vl,hu:  8% 16% 65%  1%  2%  2%  3%  1%  2%
[libx264 @ 0x2f8b120] i4 v,h,dc,ddl,ddr,vr,hd,vl,hu: 31%  6% 17% 20%  0% 12%  6%  3%  3%
[libx264 @ 0x2f8b120] i8c dc,h,v,p: 97%  2%  2%  0%
[libx264 @ 0x2f8b120] Weighted P-Frames: Y:0.5% UV:0.0%
[libx264 @ 0x2f8b120] ref P L0: 76.4% 23.6%
[libx264 @ 0x2f8b120] ref B L0: 86.7% 13.3%
[libx264 @ 0x2f8b120] ref B L1: 96.1%  3.9%
[libx264 @ 0x2f8b120] kb/s:1680.10
